<?xml version="1.0" encoding="utf-8"?>
<!-- Generator: Adobe Illustrator 26.0.1, SVG Export Plug-In . SVG Version: 6.00 Build 0)  -->
<svg version="1.1" id="Слой_1" xmlns="http://www.w3.org/2000/svg" xmlns:xlink="http://www.w3.org/1999/xlink" x="0px" y="0px"
	 viewBox="0 0 255 241" style="enable-background:new 0 0 255 241;" xml:space="preserve">
<style type="text/css">
	.st0{display:none;fill:#FF2D2D;}
	.st1{display:none;fill:#FF8282;}
	.st2{fill:#520600;}
</style>
<circle class="st0" cx="135" cy="121" r="120"/>
<circle class="st1" cx="120" cy="120" r="120"/>
<g>
	<g>
		<g>
			<path class="st2" d="M93.5,69.4l1.3,2.2c4.1,6.6,8.1,12.9,12.2,18.9c4,6,8.2,12,12.5,18c7-7.6,14.2-15.1,21.6-22.4
				c7.4-7.3,15.1-14.4,23-21.4c0.9-0.7,1.7-1.2,2.4-1.6c0.7-0.4,1.4-0.7,2.1-0.8l0.2,1.6l3.3-1.6l-1.5,2.8l4.8-1.7l-1.1,2.2l3.1-0.4
				l-2.9,2.9l3.9-1.3c-0.3,0.5-0.6,1-0.9,1.3c-0.3,0.4-0.6,0.8-1.1,1.1c-8.8,7.8-17.2,15.7-25.4,23.9c-8.2,8.2-16.1,16.7-23.9,25.6
				c4.9,6.5,10.1,13.2,15.6,20.1c5.5,6.9,11.4,14.1,17.7,21.8c0.4,0.5,0.8,1.1,1.2,1.7c0.4,0.6,0.8,1.3,1.3,2.1l-2.5-0.1l0.6,2.5
				l-4-1.8l1.6,3.6l-3.5-1.2l-0.2,1.9l-3.3-3l0.6,2.5l-2.1-1.8v0.7c-6.3-7-12-13.5-17.2-19.8c-5.2-6.2-10-12.4-14.6-18.4
				c-6.8,8.2-13.4,16.6-19.7,25.4S86,172.6,80,182l-1.5,2l-1.3-1.1l-2.4,2.3v-3.5l-3.5,3.5v-2.7l-3.3,1.8l1.6-4.3l-3.7,2.3l0.6-2.6
				l-1.5,0.8c0.2-0.5,0.3-1,0.5-1.3c0.1-0.4,0.3-0.7,0.7-1.2c6.2-9.8,13-19.7,20.4-29.5c7.4-9.8,15.4-19.7,23.9-29.4
				c-2.1-2.8-4.3-6-6.8-9.5c-2.4-3.5-4.9-7.2-7.4-11c-2.5-3.8-5-7.7-7.4-11.5c-2.4-3.9-4.6-7.5-6.5-10.9l-1.8-3l2.7,1.4l-1.1-3.6
				l2.4,1.2L84,69.2l3.9,2.5l-1.5-3.4l2.5,1.3v-1.5l2.3,2.2l-0.4-1.9l2.7,2.2V69.4z"/>
		</g>
	</g>
</g>
</svg>
