<?xml version="1.0" encoding="utf-8"?>
<!-- Generator: Adobe Illustrator 26.0.1, SVG Export Plug-In . SVG Version: 6.00 Build 0)  -->
<svg version="1.1" id="Слой_1" xmlns="http://www.w3.org/2000/svg" xmlns:xlink="http://www.w3.org/1999/xlink" x="0px" y="0px"
	 viewBox="0 0 255 241" style="enable-background:new 0 0 255 241;" xml:space="preserve">
<style type="text/css">
	.st0{display:none;fill:#98DA2D;}
	.st1{display:none;fill:#EBFF6A;}
	.st2{fill:#003C0E;}
</style>
<circle class="st0" cx="135.2" cy="121.3" r="120"/>
<circle class="st1" cx="120.2" cy="120.3" r="120"/>
<g>
	<g>
		<g>
			<path class="st2" d="M69.8,130.7c-1.4-1.1-2.6-2.1-3.6-2.9c-0.9-0.9-1.4-1.6-1.4-2.3c0-0.7,0.4-1.3,1.3-1.9
				c0.8-0.5,1.9-1,3.1-1.3c1.2-0.4,2.5-0.6,3.8-0.8c1.3-0.2,2.5-0.2,3.4-0.2c1,0,1.8,0.2,2.5,0.5s1.4,0.9,2.3,1.5
				c5.9,4.4,11.2,9.2,16,14.2c4.8,5.1,9.2,10.1,13.3,15.1c7.8-16.3,17-32,27.4-47.3C148.3,90.1,160,75.8,173,62.4
				c1.3-1.3,3.2-2.3,5.9-3c2.7-0.7,5.7-1.1,9-1.1c1.1,0,1.9,0.2,2.5,0.5c0.6,0.3,0.9,0.7,0.9,1.3c0,0.6-0.1,1-0.3,1.4
				c-0.2,0.4-0.6,0.9-1.3,1.6c-7,6.9-13.7,14.1-20.3,21.7c-6.6,7.6-12.8,15.5-18.8,23.9c-6,8.4-11.6,17.2-16.9,26.4
				c-5.3,9.2-10.2,18.9-14.7,29c-0.1,0.3-0.5,0.5-1,0.7c-0.6,0.2-1.3,0.4-2.1,0.5c-0.8,0.1-1.7,0.2-2.7,0.3c-1,0.1-2,0.1-3,0.1
				c-1.4,0-2.8-0.1-4-0.3c-1.2-0.2-2.1-0.7-2.6-1.4c-3-3.9-5.8-7.2-8.4-10.2c-2.6-2.9-5.2-5.7-7.8-8.2c-2.6-2.5-5.4-5-8.2-7.4
				C76.5,136,73.3,133.5,69.8,130.7z"/>
		</g>
	</g>
</g>
</svg>
